<?xml version="1.0" standalone="no"?>
<!DOCTYPE svg PUBLIC "-//W3C//DTD SVG 20010904//EN"
 "http://www.w3.org/TR/2001/REC-SVG-20010904/DTD/svg10.dtd">
<svg version="1.0" xmlns="http://www.w3.org/2000/svg"
 width="227.000000pt" height="222.000000pt" viewBox="0 0 227.000000 222.000000"
 preserveAspectRatio="xMidYMid meet">

<g transform="translate(0.000000,222.000000) scale(0.100000,-0.100000)"
fill="#000000" stroke="none">
<path d="M958 2204 c-428 -66 -790 -385 -911 -804 -119 -411 -1 -846 310
-1141 98 -94 178 -148 299 -206 178 -84 194 -77 194 96 l0 118 -57 -9 c-100
-16 -209 12 -267 68 -20 20 -52 65 -71 102 -38 75 -63 106 -117 146 -43 30
-48 51 -17 61 53 17 146 -29 189 -93 72 -106 128 -142 220 -141 87 1 121 18
135 66 7 23 22 57 34 76 l21 35 -47 7 c-149 22 -293 97 -358 185 -128 174
-139 471 -24 630 30 42 30 42 19 109 -11 68 -4 155 19 214 9 22 17 27 45 27
45 0 131 -32 213 -80 l64 -37 62 16 c86 21 370 20 447 -2 l55 -15 65 38 c80
47 182 82 223 78 27 -3 33 -9 45 -48 16 -53 19 -199 4 -227 -9 -16 -5 -29 23
-68 62 -87 79 -145 79 -275 1 -182 -35 -291 -130 -391 -79 -82 -177 -127 -336
-153 l-36 -7 31 -61 32 -61 5 -219 c6 -242 6 -243 69 -234 49 7 245 107 316
161 333 252 506 651 455 1051 -81 643 -666 1088 -1302 988z"/>
</g>
</svg>
